<?xml version="1.0" encoding="UTF-8" standalone="no"?>
<!DOCTYPE svg PUBLIC "-//W3C//DTD SVG 1.1//EN" "http://www.w3.org/Graphics/SVG/1.1/DTD/svg11.dtd">
<svg width="100%" height="100%" viewBox="0 0 30 30" version="1.1" xmlns="http://www.w3.org/2000/svg" xmlns:xlink="http://www.w3.org/1999/xlink" xml:space="preserve" xmlns:serif="http://www.serif.com/" style="fill-rule:evenodd;clip-rule:evenodd;stroke-linejoin:round;stroke-miterlimit:2;">
    <g transform="matrix(0.816677,0,0,0.823284,-1.06491,2.90976)">
        <path d="M36.201,4.209C36.201,3.958 35.996,3.754 35.742,3.754L3.6,3.754C3.346,3.754 3.141,3.958 3.141,4.209L3.141,5.12C3.141,5.371 3.346,5.576 3.6,5.576L35.742,5.576C35.996,5.576 36.201,5.371 36.201,5.12L36.201,4.209Z"/>
    </g>
    <g transform="matrix(0.816677,0,0,0.823284,-1.06491,19.4098)">
        <path d="M36.201,4.209C36.201,3.958 35.996,3.754 35.742,3.754L3.6,3.754C3.346,3.754 3.141,3.958 3.141,4.209L3.141,5.12C3.141,5.371 3.346,5.576 3.6,5.576L35.742,5.576C35.996,5.576 36.201,5.371 36.201,5.12L36.201,4.209Z"/>
    </g>
    <g transform="matrix(0.816677,0,0,0.823284,-1.06491,11.1598)">
        <path d="M36.201,4.209C36.201,3.958 35.996,3.754 35.742,3.754L3.6,3.754C3.346,3.754 3.141,3.958 3.141,4.209L3.141,5.12C3.141,5.371 3.346,5.576 3.6,5.576L35.742,5.576C35.996,5.576 36.201,5.371 36.201,5.12L36.201,4.209Z"/>
    </g>
</svg>
